<svg id="svg" version="1.1" xmlns="http://www.w3.org/2000/svg" xmlns:xlink="http://www.w3.org/1999/xlink" width="400" height="400" viewBox="0, 0, 400,400"><g id="svgg"><path id="path0" d="M284.800 16.462 C 283.791 16.743,282.073 18.211,278.646 21.726 C 267.687 32.962,262.314 39.597,258.823 46.200 C 257.892 47.960,256.995 49.580,256.828 49.800 C 256.433 50.321,253.688 57.272,252.959 59.596 C 251.807 63.271,251.644 63.875,250.860 67.400 C 249.098 75.319,248.695 87.589,249.953 95.000 C 252.055 107.380,251.074 105.672,256.957 107.189 C 259.552 107.858,263.036 108.862,264.700 109.421 C 268.491 110.693,268.485 110.702,267.419 105.400 C 266.933 102.980,266.305 99.650,266.023 98.000 C 265.742 96.350,265.314 94.370,265.073 93.600 C 264.355 91.314,264.532 75.551,265.311 72.400 C 267.595 63.154,268.848 59.617,271.688 54.400 C 273.500 51.071,276.575 46.443,278.198 44.600 C 278.780 43.940,279.728 42.860,280.305 42.200 C 280.883 41.540,284.065 38.095,287.378 34.544 C 294.562 26.842,294.099 27.426,294.747 25.238 C 296.404 19.647,290.877 14.771,284.800 16.462 M264.934 159.427 C 264.815 159.739,264.907 161.481,265.139 163.297 C 265.922 169.413,265.959 170.577,265.602 178.000 C 264.978 190.943,263.318 198.553,258.491 210.600 C 254.249 221.185,244.760 234.467,235.124 243.309 C 231.683 246.466,224.040 252.400,223.414 252.400 C 223.266 252.400,222.359 252.940,221.400 253.600 C 220.441 254.260,219.478 254.800,219.261 254.800 C 219.044 254.800,218.807 254.938,218.733 255.106 C 218.535 255.561,209.081 260.131,205.400 261.551 C 200.638 263.389,197.912 264.165,189.800 265.996 C 175.341 269.259,155.103 267.233,137.800 260.790 C 134.631 259.610,133.879 259.429,124.400 257.571 C 123.190 257.334,121.570 256.983,120.800 256.791 C 120.030 256.599,118.680 256.326,117.800 256.186 C 116.920 256.045,115.435 255.766,114.500 255.565 C 110.355 254.675,109.258 254.446,107.000 254.000 C 105.680 253.739,103.880 253.381,103.000 253.205 C 93.268 251.252,87.866 250.704,80.400 250.911 C 72.670 251.125,68.997 251.558,64.200 252.821 C 62.440 253.284,60.370 253.804,59.600 253.976 C 58.249 254.278,50.847 257.140,48.800 258.152 C 40.660 262.175,34.341 266.695,26.600 274.028 C 25.060 275.487,22.494 277.903,20.898 279.397 C 14.137 285.723,14.482 292.751,21.651 294.758 C 25.270 295.772,25.893 295.420,34.352 287.600 C 46.751 276.136,54.377 271.195,63.400 268.777 C 72.288 266.395,77.326 265.789,85.200 266.154 C 91.312 266.437,91.195 266.417,111.600 270.559 C 131.213 274.541,132.060 274.723,133.000 275.157 C 134.851 276.011,138.406 277.273,141.100 278.033 C 141.815 278.235,143.075 278.592,143.900 278.827 C 155.609 282.157,171.985 283.667,182.379 282.375 C 189.863 281.445,194.716 280.648,196.800 280.007 C 197.350 279.838,198.790 279.478,200.000 279.208 C 202.832 278.575,211.684 275.635,212.180 275.162 C 212.389 274.963,212.853 274.800,213.212 274.800 C 214.776 274.800,227.924 267.818,233.800 263.868 C 242.885 257.761,254.944 245.960,260.338 237.899 C 261.552 236.085,262.780 234.365,263.067 234.077 C 263.354 233.790,264.243 232.440,265.043 231.077 C 270.462 221.845,274.555 212.384,277.233 202.900 C 277.435 202.185,277.794 200.925,278.031 200.100 C 278.441 198.676,278.684 197.427,279.592 192.100 C 281.275 182.218,281.685 163.551,280.249 162.116 C 280.136 162.002,275.473 161.027,270.000 159.971 C 268.790 159.737,267.204 159.392,266.476 159.203 C 265.466 158.941,265.100 158.994,264.934 159.427 " stroke="none" fill="#7ad1f9" fill-rule="evenodd"></path><path id="path1" d="M372.800 106.522 C 372.030 106.992,368.790 109.971,365.600 113.142 C 362.410 116.312,358.720 119.827,357.400 120.953 C 356.080 122.079,354.910 123.105,354.800 123.232 C 352.649 125.730,339.787 132.261,334.416 133.582 C 333.637 133.774,332.010 134.194,330.800 134.517 C 321.004 137.130,312.277 136.611,289.600 132.071 C 267.747 127.695,267.851 127.720,262.600 125.603 C 258.800 124.072,253.455 122.616,246.400 121.190 C 233.456 118.575,214.592 118.905,202.600 121.957 C 201.720 122.181,200.460 122.479,199.800 122.619 C 198.065 122.987,190.776 125.173,189.600 125.678 C 188.495 126.152,187.688 126.466,185.600 127.234 C 179.485 129.484,167.395 136.253,161.611 140.666 C 155.561 145.281,149.998 150.470,144.779 156.365 C 143.141 158.216,141.611 159.926,141.381 160.165 C 140.824 160.744,135.273 168.807,133.974 170.926 C 131.801 174.468,127.200 183.219,127.200 183.807 C 127.200 183.957,126.951 184.646,126.647 185.340 C 126.342 186.033,125.736 187.410,125.300 188.400 C 124.449 190.333,123.220 193.891,122.400 196.800 C 121.598 199.641,121.113 201.320,120.781 202.400 C 120.612 202.950,120.269 204.570,120.018 206.000 C 119.768 207.430,119.397 209.500,119.193 210.600 C 117.539 219.532,117.374 238.738,118.942 239.916 C 119.194 240.105,121.650 240.672,124.400 241.176 C 127.150 241.679,129.922 242.251,130.560 242.446 C 131.198 242.641,132.298 242.800,133.005 242.800 L 134.291 242.800 133.990 240.900 C 132.026 228.510,133.374 211.314,137.196 200.000 C 138.071 197.410,141.347 188.955,141.614 188.600 C 141.779 188.380,142.800 186.490,143.883 184.400 C 146.104 180.114,152.453 170.522,154.474 168.400 C 155.208 167.630,156.854 165.795,158.133 164.322 C 165.482 155.861,182.628 144.008,191.600 141.187 C 192.150 141.014,193.860 140.402,195.400 139.827 C 214.365 132.746,238.790 132.947,258.513 140.346 C 260.761 141.189,263.500 142.098,264.600 142.365 C 265.700 142.632,267.230 143.012,268.000 143.209 C 268.770 143.406,269.940 143.657,270.600 143.766 C 271.260 143.875,272.610 144.136,273.600 144.345 C 274.590 144.555,276.480 144.939,277.800 145.200 C 279.120 145.461,280.920 145.821,281.800 146.000 C 282.680 146.179,284.480 146.539,285.800 146.800 C 287.120 147.061,288.920 147.421,289.800 147.600 C 290.680 147.779,292.480 148.139,293.800 148.400 C 295.120 148.661,297.010 149.038,298.000 149.239 C 310.978 151.868,324.826 151.868,334.800 149.238 C 341.004 147.603,342.833 147.004,346.800 145.311 C 357.508 140.742,363.670 136.323,374.841 125.202 C 384.345 115.741,384.737 115.141,383.863 111.400 C 382.721 106.511,376.969 103.974,372.800 106.522 M130.800 292.362 C 130.800 293.030,132.891 304.382,134.000 309.731 C 134.534 312.308,134.511 324.332,133.966 327.376 C 131.074 343.525,126.457 351.942,113.156 365.313 C 103.734 374.785,102.727 378.177,108.054 382.489 C 112.364 385.977,115.378 384.671,124.788 375.233 C 134.565 365.428,140.800 356.525,144.000 347.800 C 144.161 347.360,144.497 346.505,144.746 345.900 C 145.800 343.344,145.946 342.952,146.194 342.000 C 146.337 341.450,146.634 340.370,146.854 339.600 C 150.062 328.358,150.691 317.716,148.815 306.400 C 148.614 305.190,148.241 302.850,147.984 301.200 C 147.312 296.871,146.950 296.093,145.461 295.787 C 143.248 295.330,138.308 293.928,134.753 292.746 C 130.663 291.387,130.800 291.400,130.800 292.362 " stroke="none" fill="#e84a72" fill-rule="evenodd"></path><path id="path2" d="M280.100 0.266 C 279.385 0.368,278.800 0.619,278.800 0.825 C 278.800 1.031,278.440 1.200,278.000 1.200 C 277.560 1.200,277.200 1.380,277.200 1.600 C 277.200 1.820,276.840 2.000,276.400 2.000 C 275.960 2.000,275.600 2.180,275.600 2.400 C 275.600 2.620,275.312 2.800,274.960 2.800 C 274.609 2.800,273.817 3.340,273.200 4.000 C 272.583 4.660,271.871 5.200,271.617 5.200 C 271.140 5.200,268.901 7.424,263.400 13.365 C 261.640 15.266,259.075 18.007,257.700 19.457 C 256.325 20.907,255.200 22.257,255.200 22.457 C 255.200 22.657,254.408 23.613,253.440 24.581 C 252.472 25.549,251.353 26.894,250.954 27.570 C 250.554 28.247,250.086 28.800,249.914 28.800 C 249.741 28.800,249.600 29.070,249.600 29.400 C 249.600 29.730,249.450 30.000,249.268 30.000 C 249.085 30.000,248.681 30.495,248.370 31.100 C 248.060 31.705,247.489 32.491,247.103 32.847 C 246.716 33.203,246.400 33.773,246.400 34.114 C 246.400 34.454,246.265 34.793,246.100 34.867 C 245.626 35.077,243.600 39.038,243.600 39.754 C 243.600 40.109,243.420 40.400,243.200 40.400 C 242.980 40.400,242.800 40.760,242.800 41.200 C 242.800 41.640,242.620 42.000,242.400 42.000 C 242.180 42.000,242.000 42.360,242.000 42.800 C 242.000 43.240,241.864 43.600,241.698 43.600 C 241.531 43.600,241.160 44.185,240.871 44.900 C 240.583 45.615,240.179 46.513,239.974 46.895 C 239.768 47.277,239.600 47.862,239.600 48.195 C 239.600 48.528,239.420 48.800,239.200 48.800 C 238.980 48.800,238.800 49.239,238.800 49.776 C 238.800 50.313,238.620 50.864,238.400 51.000 C 238.180 51.136,238.000 51.597,238.000 52.024 C 238.000 52.451,237.820 52.800,237.600 52.800 C 237.380 52.800,237.200 53.340,237.200 54.000 C 237.200 54.660,237.020 55.200,236.800 55.200 C 236.580 55.200,236.400 55.729,236.400 56.376 C 236.400 57.023,236.220 57.664,236.000 57.800 C 235.780 57.936,235.600 58.667,235.600 59.424 C 235.600 60.181,235.420 60.800,235.200 60.800 C 234.980 60.800,234.800 61.610,234.800 62.600 C 234.800 63.590,234.620 64.400,234.400 64.400 C 234.180 64.400,234.000 65.264,234.000 66.320 C 234.000 67.376,233.834 68.411,233.630 68.620 C 233.060 69.205,232.741 74.587,232.741 83.600 C 232.741 92.613,233.060 97.995,233.630 98.580 C 233.834 98.789,234.000 99.824,234.000 100.880 L 234.000 102.800 225.424 102.800 C 220.137 102.800,216.752 102.953,216.600 103.200 C 216.462 103.423,214.596 103.600,212.376 103.600 C 209.992 103.600,208.400 103.760,208.400 104.000 C 208.400 104.220,207.500 104.400,206.400 104.400 C 205.300 104.400,204.400 104.580,204.400 104.800 C 204.400 105.020,203.500 105.200,202.400 105.200 C 201.300 105.200,200.400 105.380,200.400 105.600 C 200.400 105.820,199.500 106.000,198.400 106.000 C 197.300 106.000,196.400 106.180,196.400 106.400 C 196.400 106.620,195.770 106.800,195.000 106.800 C 194.230 106.800,193.600 106.980,193.600 107.200 C 193.600 107.420,193.060 107.600,192.400 107.600 C 191.740 107.600,191.200 107.780,191.200 108.000 C 191.200 108.220,190.581 108.400,189.824 108.400 C 189.067 108.400,188.336 108.580,188.200 108.800 C 188.064 109.020,187.423 109.200,186.776 109.200 C 186.129 109.200,185.600 109.356,185.600 109.546 C 185.600 109.736,184.794 110.002,183.809 110.137 C 182.824 110.272,181.699 110.559,181.309 110.775 C 180.919 110.991,179.340 111.729,177.800 112.416 C 176.260 113.102,174.687 113.829,174.305 114.032 C 173.923 114.234,173.338 114.400,173.005 114.400 C 172.672 114.400,172.400 114.580,172.400 114.800 C 172.400 115.020,172.040 115.200,171.600 115.200 C 171.160 115.200,170.800 115.380,170.800 115.600 C 170.800 115.820,170.440 116.000,170.000 116.000 C 169.560 116.000,169.200 116.180,169.200 116.400 C 169.200 116.620,168.840 116.800,168.400 116.800 C 167.960 116.800,167.600 116.959,167.600 117.153 C 167.600 117.348,167.285 117.607,166.900 117.729 C 166.153 117.966,163.933 119.246,163.600 119.632 C 163.490 119.760,162.815 120.119,162.100 120.430 C 161.385 120.741,160.800 121.131,160.800 121.298 C 160.800 121.464,160.564 121.600,160.275 121.600 C 159.987 121.600,159.364 121.960,158.892 122.400 C 158.420 122.840,157.873 123.200,157.676 123.200 C 157.479 123.200,156.754 123.740,156.063 124.400 C 155.372 125.060,154.602 125.600,154.351 125.600 C 154.099 125.600,153.603 125.915,153.247 126.300 C 152.891 126.685,151.925 127.343,151.100 127.763 C 150.275 128.183,149.600 128.664,149.600 128.834 C 149.600 129.003,149.353 129.200,149.050 129.271 C 147.197 129.707,128.918 148.070,127.627 150.793 C 127.313 151.457,126.908 152.000,126.727 152.000 C 126.547 152.000,126.400 152.270,126.400 152.600 C 126.400 152.930,126.220 153.200,126.000 153.200 C 125.780 153.200,125.600 153.430,125.600 153.712 C 125.600 153.993,125.240 154.483,124.800 154.800 C 124.360 155.117,124.000 155.609,124.000 155.892 C 124.000 156.175,123.460 156.972,122.800 157.663 C 122.140 158.354,121.600 159.079,121.600 159.276 C 121.600 159.473,121.240 160.020,120.800 160.492 C 120.360 160.964,120.000 161.587,120.000 161.875 C 120.000 162.164,119.820 162.400,119.600 162.400 C 119.380 162.400,119.200 162.670,119.200 163.000 C 119.200 163.330,119.020 163.600,118.800 163.600 C 118.580 163.600,118.400 163.945,118.400 164.367 C 118.400 164.788,118.265 165.193,118.100 165.267 C 117.724 165.434,116.425 167.564,116.129 168.500 C 116.007 168.885,115.748 169.200,115.553 169.200 C 115.359 169.200,115.200 169.560,115.200 170.000 C 115.200 170.440,115.020 170.800,114.800 170.800 C 114.580 170.800,114.400 171.160,114.400 171.600 C 114.400 172.040,114.220 172.400,114.000 172.400 C 113.780 172.400,113.600 172.760,113.600 173.200 C 113.600 173.640,113.420 174.000,113.200 174.000 C 112.980 174.000,112.800 174.275,112.800 174.611 C 112.800 174.948,112.170 176.550,111.400 178.173 C 110.630 179.796,110.000 181.500,110.000 181.962 C 110.000 182.423,109.820 182.800,109.600 182.800 C 109.380 182.800,109.200 183.250,109.200 183.800 C 109.200 184.350,109.020 184.800,108.800 184.800 C 108.580 184.800,108.400 185.340,108.400 186.000 C 108.400 186.660,108.220 187.200,108.000 187.200 C 107.780 187.200,107.600 187.819,107.600 188.576 C 107.600 189.333,107.420 190.064,107.200 190.200 C 106.980 190.336,106.800 190.977,106.800 191.624 C 106.800 192.271,106.620 192.800,106.400 192.800 C 106.180 192.800,106.000 193.239,106.000 193.776 C 106.000 194.313,105.820 194.864,105.600 195.000 C 105.380 195.136,105.200 195.867,105.200 196.624 C 105.200 197.381,105.020 198.000,104.800 198.000 C 104.580 198.000,104.400 198.900,104.400 200.000 C 104.400 201.100,104.220 202.000,104.000 202.000 C 103.780 202.000,103.600 202.900,103.600 204.000 C 103.600 205.100,103.420 206.000,103.200 206.000 C 102.980 206.000,102.800 206.900,102.800 208.000 C 102.800 209.100,102.620 210.000,102.400 210.000 C 102.159 210.000,102.000 211.667,102.000 214.200 C 102.000 216.733,101.841 218.400,101.600 218.400 C 101.346 218.400,101.200 221.533,101.200 227.000 L 101.200 235.600 99.224 235.600 C 98.137 235.600,97.136 235.420,97.000 235.200 C 96.864 234.980,95.413 234.800,93.776 234.800 C 92.059 234.800,90.800 234.631,90.800 234.400 C 90.800 234.146,87.733 234.000,82.400 234.000 C 77.067 234.000,74.000 234.146,74.000 234.400 C 74.000 234.631,72.741 234.800,71.024 234.800 C 69.387 234.800,67.936 234.980,67.800 235.200 C 67.664 235.420,66.483 235.600,65.176 235.600 C 63.859 235.600,62.800 235.778,62.800 236.000 C 62.800 236.220,61.990 236.400,61.000 236.400 C 60.010 236.400,59.200 236.580,59.200 236.800 C 59.200 237.020,58.581 237.200,57.824 237.200 C 57.067 237.200,56.336 237.380,56.200 237.600 C 56.064 237.820,55.423 238.000,54.776 238.000 C 54.129 238.000,53.600 238.180,53.600 238.400 C 53.600 238.620,53.060 238.800,52.400 238.800 C 51.740 238.800,51.200 238.980,51.200 239.200 C 51.200 239.420,50.851 239.600,50.424 239.600 C 49.997 239.600,49.536 239.780,49.400 240.000 C 49.264 240.220,48.713 240.400,48.176 240.400 C 47.639 240.400,47.200 240.580,47.200 240.800 C 47.200 241.020,46.851 241.200,46.424 241.200 C 45.997 241.200,45.536 241.380,45.400 241.600 C 45.264 241.820,44.803 242.000,44.376 242.000 C 43.949 242.000,43.600 242.180,43.600 242.400 C 43.600 242.620,43.240 242.800,42.800 242.800 C 42.360 242.800,42.000 242.980,42.000 243.200 C 42.000 243.420,41.678 243.600,41.284 243.600 C 40.890 243.600,39.225 244.326,37.584 245.214 C 35.943 246.102,34.285 246.933,33.900 247.061 C 33.515 247.189,33.200 247.452,33.200 247.647 C 33.200 247.841,32.906 248.000,32.547 248.000 C 32.188 248.000,31.603 248.316,31.247 248.703 C 30.891 249.089,30.105 249.660,29.500 249.970 C 28.895 250.281,28.400 250.685,28.400 250.868 C 28.400 251.050,28.170 251.200,27.888 251.200 C 27.607 251.200,27.117 251.560,26.800 252.000 C 26.483 252.440,26.011 252.800,25.752 252.800 C 25.493 252.800,24.362 253.700,23.239 254.800 C 22.115 255.900,21.046 256.800,20.862 256.800 C 20.678 256.800,19.644 257.618,18.564 258.618 C 17.484 259.618,15.097 261.823,13.260 263.518 C 7.467 268.863,5.200 271.141,5.200 271.617 C 5.200 271.871,4.660 272.583,4.000 273.200 C 3.340 273.817,2.800 274.609,2.800 274.960 C 2.800 275.312,2.620 275.600,2.400 275.600 C 2.180 275.600,2.000 275.960,2.000 276.400 C 2.000 276.840,1.820 277.200,1.600 277.200 C 1.380 277.200,1.200 277.545,1.200 277.967 C 1.200 278.388,0.975 278.808,0.700 278.900 C -0.023 279.141,-0.023 296.059,0.700 296.300 C 0.975 296.392,1.200 296.812,1.200 297.233 C 1.200 297.655,1.380 298.000,1.600 298.000 C 1.820 298.000,2.000 298.360,2.000 298.800 C 2.000 299.240,2.180 299.600,2.400 299.600 C 2.620 299.600,2.800 299.888,2.800 300.240 C 2.800 300.591,3.340 301.383,4.000 302.000 C 4.660 302.617,5.203 303.274,5.207 303.460 C 5.211 303.647,5.706 304.217,6.307 304.726 C 6.908 305.235,8.101 306.262,8.957 307.007 C 9.814 307.752,11.029 308.475,11.657 308.613 C 12.286 308.751,12.800 309.029,12.800 309.232 C 12.800 309.434,13.149 309.600,13.576 309.600 C 14.003 309.600,14.464 309.780,14.600 310.000 C 14.736 310.220,15.467 310.400,16.224 310.400 C 16.981 310.400,17.600 310.580,17.600 310.800 C 17.600 311.048,19.800 311.200,23.400 311.200 C 27.000 311.200,29.200 311.048,29.200 310.800 C 29.200 310.580,29.920 310.400,30.800 310.400 C 31.680 310.400,32.400 310.220,32.400 310.000 C 32.400 309.780,32.760 309.600,33.200 309.600 C 33.640 309.600,34.000 309.443,34.000 309.250 C 34.000 309.058,34.500 308.800,35.110 308.678 C 36.679 308.364,39.311 306.184,45.351 300.198 C 48.238 297.336,51.230 294.550,52.000 294.006 C 52.770 293.462,53.813 292.608,54.318 292.109 C 55.657 290.783,56.573 290.980,58.491 293.005 C 59.431 293.998,63.326 297.936,67.148 301.757 C 75.849 310.457,75.828 310.437,83.791 318.400 C 87.421 322.030,91.158 325.767,92.096 326.704 C 93.033 327.642,96.716 331.332,100.281 334.904 C 103.846 338.477,107.503 342.071,108.408 342.891 L 110.055 344.382 109.127 345.341 C 107.883 346.628,106.800 347.963,106.800 348.212 C 106.800 348.324,105.659 349.556,104.264 350.951 L 101.728 353.487 92.316 344.143 C 83.505 335.396,82.812 334.800,81.452 334.800 C 80.654 334.800,80.000 334.620,80.000 334.400 C 80.000 334.180,79.370 334.000,78.600 334.000 C 77.830 334.000,77.200 334.180,77.200 334.400 C 77.200 334.620,76.660 334.800,76.000 334.800 C 75.340 334.800,74.800 334.980,74.800 335.200 C 74.800 335.420,74.522 335.600,74.182 335.600 C 73.382 335.600,71.600 337.382,71.600 338.182 C 71.600 338.522,71.420 338.800,71.200 338.800 C 70.980 338.800,70.800 339.340,70.800 340.000 C 70.800 340.660,70.620 341.200,70.400 341.200 C 70.180 341.200,70.000 341.830,70.000 342.600 C 70.000 343.370,70.180 344.000,70.400 344.000 C 70.620 344.000,70.800 344.640,70.800 345.422 C 70.800 347.032,72.051 348.440,83.900 360.154 C 89.833 366.020,91.128 367.600,90.000 367.600 C 89.780 367.600,89.600 368.129,89.600 368.776 C 89.600 369.423,89.420 370.064,89.200 370.200 C 88.665 370.531,88.665 382.669,89.200 383.000 C 89.420 383.136,89.600 383.777,89.600 384.424 C 89.600 385.071,89.780 385.600,90.000 385.600 C 90.220 385.600,90.400 385.960,90.400 386.400 C 90.400 386.840,90.580 387.200,90.800 387.200 C 91.020 387.200,91.200 387.560,91.200 388.000 C 91.200 388.440,91.380 388.800,91.600 388.800 C 91.820 388.800,92.000 389.070,92.000 389.400 C 92.000 389.730,92.180 390.000,92.400 390.000 C 92.620 390.000,92.800 390.180,92.800 390.400 C 92.800 390.620,93.115 391.158,93.500 391.595 C 93.885 392.032,94.650 392.929,95.200 393.588 C 95.750 394.247,96.353 394.789,96.540 394.793 C 96.726 394.797,97.383 395.340,98.000 396.000 C 98.617 396.660,99.409 397.200,99.760 397.200 C 100.112 397.200,100.400 397.380,100.400 397.600 C 100.400 397.820,100.760 398.000,101.200 398.000 C 101.640 398.000,102.000 398.180,102.000 398.400 C 102.000 398.620,102.345 398.800,102.767 398.800 C 103.188 398.800,103.608 399.025,103.700 399.300 C 103.826 399.678,105.859 399.800,112.053 399.800 L 120.239 399.800 123.020 398.406 C 124.549 397.640,126.277 396.515,126.860 395.906 C 127.444 395.298,128.109 394.800,128.339 394.800 C 129.261 394.800,144.000 380.174,144.000 379.260 C 144.000 379.060,144.720 378.155,145.600 377.248 C 146.480 376.341,147.200 375.511,147.200 375.404 C 147.200 375.205,148.197 373.935,149.100 372.984 C 149.375 372.694,149.600 372.264,149.600 372.029 C 149.600 371.793,149.750 371.600,149.932 371.600 C 150.115 371.600,150.519 371.105,150.830 370.500 C 151.140 369.895,151.711 369.109,152.097 368.753 C 152.484 368.397,152.800 367.812,152.800 367.453 C 152.800 367.094,152.980 366.800,153.200 366.800 C 153.420 366.800,153.600 366.440,153.600 366.000 C 153.600 365.560,153.759 365.200,153.953 365.200 C 154.148 365.200,154.407 364.885,154.529 364.500 C 154.652 364.115,155.568 362.300,156.564 360.467 C 157.561 358.634,158.492 356.519,158.633 355.767 C 158.774 355.015,159.049 354.400,159.245 354.400 C 159.440 354.400,159.600 353.961,159.600 353.424 C 159.600 352.887,159.780 352.336,160.000 352.200 C 160.220 352.064,160.400 351.603,160.400 351.176 C 160.400 350.749,160.580 350.400,160.800 350.400 C 161.020 350.400,161.200 349.860,161.200 349.200 C 161.200 348.540,161.380 348.000,161.600 348.000 C 161.820 348.000,162.000 347.460,162.000 346.800 C 162.000 346.140,162.180 345.600,162.400 345.600 C 162.620 345.600,162.800 344.880,162.800 344.000 C 162.800 343.120,162.980 342.400,163.200 342.400 C 163.420 342.400,163.600 341.770,163.600 341.000 C 163.600 340.230,163.780 339.600,164.000 339.600 C 164.220 339.600,164.400 338.711,164.400 337.624 C 164.400 336.537,164.580 335.536,164.800 335.400 C 165.020 335.264,165.200 334.184,165.200 333.000 C 165.200 331.816,165.380 330.736,165.600 330.600 C 165.851 330.445,166.000 326.129,166.000 318.976 C 166.000 311.659,165.857 307.600,165.600 307.600 C 165.365 307.600,165.200 306.208,165.200 304.224 C 165.200 302.367,165.020 300.736,164.800 300.600 C 164.580 300.464,164.400 300.003,164.400 299.576 C 164.400 298.709,171.280 298.359,171.800 299.200 C 172.122 299.722,177.878 299.722,178.200 299.200 C 178.339 298.975,180.263 298.800,182.600 298.800 C 184.937 298.800,186.861 298.625,187.000 298.400 C 187.136 298.180,188.486 298.000,190.000 298.000 C 191.514 298.000,192.864 297.820,193.000 297.600 C 193.136 297.380,194.036 297.200,195.000 297.200 C 195.964 297.200,196.864 297.020,197.000 296.800 C 197.136 296.580,198.036 296.400,199.000 296.400 C 199.964 296.400,200.864 296.220,201.000 296.000 C 201.136 295.780,201.957 295.600,202.824 295.600 C 203.691 295.600,204.400 295.420,204.400 295.200 C 204.400 294.980,204.940 294.800,205.600 294.800 C 206.260 294.800,206.800 294.620,206.800 294.400 C 206.800 294.180,207.430 294.000,208.200 294.000 C 208.970 294.000,209.600 293.820,209.600 293.600 C 209.600 293.380,210.140 293.200,210.800 293.200 C 211.460 293.200,212.000 293.020,212.000 292.800 C 212.000 292.580,212.540 292.400,213.200 292.400 C 213.860 292.400,214.400 292.220,214.400 292.000 C 214.400 291.780,214.868 291.600,215.440 291.600 C 216.011 291.600,217.136 291.312,217.940 290.959 C 218.743 290.607,219.760 290.174,220.200 289.998 C 220.640 289.822,222.204 289.121,223.675 288.439 C 225.146 287.758,226.631 287.200,226.975 287.200 C 227.319 287.200,227.600 287.020,227.600 286.800 C 227.600 286.580,227.960 286.400,228.400 286.400 C 228.840 286.400,229.200 286.220,229.200 286.000 C 229.200 285.780,229.478 285.600,229.817 285.600 C 230.156 285.600,230.820 285.240,231.292 284.800 C 231.764 284.360,232.387 284.000,232.675 284.000 C 232.964 284.000,233.200 283.820,233.200 283.600 C 233.200 283.380,233.560 283.200,234.000 283.200 C 234.440 283.200,234.800 283.020,234.800 282.800 C 234.800 282.580,235.160 282.400,235.600 282.400 C 236.040 282.400,236.400 282.220,236.400 282.000 C 236.400 281.780,236.670 281.600,237.000 281.600 C 237.330 281.600,237.600 281.420,237.600 281.200 C 237.600 280.980,237.870 280.800,238.200 280.800 C 238.530 280.800,238.800 280.620,238.800 280.400 C 238.800 280.180,239.068 280.000,239.395 280.000 C 240.000 280.000,240.951 279.324,242.632 277.700 C 243.144 277.205,243.760 276.800,244.000 276.800 C 244.240 276.800,244.886 276.350,245.436 275.800 C 245.986 275.250,246.653 274.800,246.918 274.800 C 247.183 274.799,247.923 274.349,248.562 273.800 C 249.201 273.250,249.873 272.800,250.054 272.800 C 250.235 272.800,251.373 271.810,252.583 270.600 C 253.793 269.390,254.894 268.400,255.030 268.400 C 255.324 268.400,266.800 256.882,266.800 256.587 C 266.800 256.474,267.790 255.393,269.000 254.183 C 270.210 252.973,271.200 251.835,271.200 251.654 C 271.200 251.473,271.650 250.801,272.200 250.162 C 272.749 249.523,273.199 248.857,273.200 248.682 C 273.200 248.507,273.650 247.914,274.200 247.364 C 274.750 246.814,275.200 246.094,275.200 245.764 C 275.200 245.434,275.636 244.728,276.169 244.195 C 276.702 243.662,277.254 242.860,277.396 242.413 C 277.538 241.966,277.822 241.600,278.027 241.600 C 278.232 241.600,278.400 241.330,278.400 241.000 C 278.400 240.670,278.559 240.400,278.753 240.400 C 278.948 240.400,279.207 240.085,279.329 239.700 C 279.625 238.764,280.924 236.634,281.300 236.467 C 281.465 236.393,281.600 235.988,281.600 235.567 C 281.600 235.145,281.780 234.800,282.000 234.800 C 282.220 234.800,282.400 234.564,282.400 234.275 C 282.400 233.987,282.760 233.364,283.200 232.892 C 283.640 232.420,284.000 231.756,284.000 231.417 C 284.000 231.078,284.180 230.800,284.400 230.800 C 284.620 230.800,284.800 230.440,284.800 230.000 C 284.800 229.560,284.947 229.200,285.128 229.200 C 285.308 229.200,285.700 228.300,286.000 227.200 C 286.300 226.100,286.648 225.200,286.775 225.200 C 286.901 225.200,287.240 224.615,287.529 223.900 C 287.817 223.185,288.221 222.287,288.426 221.905 C 288.632 221.523,288.800 220.938,288.800 220.605 C 288.800 220.272,288.980 220.000,289.200 220.000 C 289.420 220.000,289.600 219.651,289.600 219.224 C 289.600 218.797,289.780 218.336,290.000 218.200 C 290.220 218.064,290.400 217.524,290.400 217.000 C 290.400 216.476,290.567 215.944,290.772 215.817 C 290.977 215.691,291.267 214.600,291.418 213.394 C 291.569 212.187,291.851 211.200,292.046 211.200 C 292.241 211.200,292.400 210.570,292.400 209.800 C 292.400 209.030,292.580 208.400,292.800 208.400 C 293.020 208.400,293.200 207.860,293.200 207.200 C 293.200 206.540,293.380 206.000,293.600 206.000 C 293.820 206.000,294.000 205.291,294.000 204.424 C 294.000 203.557,294.180 202.736,294.400 202.600 C 294.620 202.464,294.800 201.564,294.800 200.600 C 294.800 199.636,294.980 198.736,295.200 198.600 C 295.420 198.464,295.600 197.564,295.600 196.600 C 295.600 195.636,295.780 194.736,296.000 194.600 C 296.220 194.464,296.400 193.114,296.400 191.600 C 296.400 190.086,296.580 188.736,296.800 188.600 C 297.025 188.461,297.200 186.537,297.200 184.200 C 297.200 181.863,297.375 179.939,297.600 179.800 C 297.820 179.664,298.000 178.224,298.000 176.600 C 298.000 174.976,297.820 173.536,297.600 173.400 C 297.380 173.264,297.200 171.543,297.200 169.576 L 297.200 166.000 298.576 166.000 C 299.333 166.000,300.064 166.180,300.200 166.400 C 300.336 166.620,301.506 166.800,302.800 166.800 C 304.094 166.800,305.264 166.980,305.400 167.200 C 305.541 167.429,307.596 167.600,310.200 167.600 C 313.047 167.600,314.853 167.763,315.022 168.035 C 315.182 168.294,315.636 168.347,316.145 168.166 C 316.615 167.999,319.790 167.720,323.200 167.546 C 331.697 167.113,334.800 166.797,334.800 166.366 C 334.800 166.165,335.509 166.000,336.376 166.000 C 337.243 166.000,338.064 165.820,338.200 165.600 C 338.336 165.380,339.157 165.200,340.024 165.200 C 340.891 165.200,341.600 165.020,341.600 164.800 C 341.600 164.580,342.140 164.400,342.800 164.400 C 343.460 164.400,344.000 164.220,344.000 164.000 C 344.000 163.780,344.540 163.600,345.200 163.600 C 345.860 163.600,346.400 163.420,346.400 163.200 C 346.400 162.980,346.940 162.800,347.600 162.800 C 348.260 162.800,348.800 162.620,348.800 162.400 C 348.800 162.180,349.160 162.000,349.600 162.000 C 350.040 162.000,350.400 161.820,350.400 161.600 C 350.400 161.380,350.940 161.200,351.600 161.200 C 352.260 161.200,352.800 161.020,352.800 160.800 C 352.800 160.580,353.160 160.400,353.600 160.400 C 354.040 160.400,354.400 160.220,354.400 160.000 C 354.400 159.780,354.748 159.600,355.173 159.600 C 356.031 159.600,363.323 156.050,363.533 155.529 C 363.607 155.348,364.012 155.200,364.433 155.200 C 364.855 155.200,365.200 155.020,365.200 154.800 C 365.200 154.580,365.494 154.400,365.853 154.400 C 366.212 154.400,366.797 154.084,367.153 153.697 C 367.509 153.311,368.295 152.740,368.900 152.430 C 369.505 152.119,370.000 151.715,370.000 151.532 C 370.000 151.350,370.270 151.200,370.600 151.200 C 370.930 151.200,371.200 151.020,371.200 150.800 C 371.200 150.580,371.430 150.400,371.712 150.400 C 371.993 150.400,372.483 150.040,372.800 149.600 C 373.117 149.160,373.545 148.800,373.751 148.800 C 373.956 148.800,374.831 148.080,375.693 147.200 C 376.556 146.320,377.431 145.600,377.639 145.600 C 378.065 145.600,380.383 143.423,386.903 136.902 C 393.855 129.949,396.151 127.479,396.768 126.293 C 397.080 125.692,397.485 125.200,397.668 125.200 C 397.850 125.200,398.000 124.840,398.000 124.400 C 398.000 123.960,398.180 123.600,398.400 123.600 C 398.620 123.600,398.800 123.276,398.800 122.880 C 398.800 122.484,399.025 121.935,399.300 121.660 C 399.668 121.292,399.800 118.977,399.800 112.913 C 399.800 106.672,399.678 104.626,399.300 104.500 C 399.025 104.408,398.800 103.932,398.800 103.442 C 398.800 102.952,398.440 102.164,398.000 101.692 C 397.560 101.220,397.200 100.556,397.200 100.217 C 397.200 99.878,397.020 99.600,396.800 99.600 C 396.580 99.600,396.400 99.330,396.400 99.000 C 396.400 98.670,396.220 98.400,396.000 98.400 C 395.780 98.400,395.600 98.215,395.600 97.989 C 395.600 97.404,392.401 94.282,390.881 93.384 C 390.176 92.968,389.600 92.486,389.600 92.314 C 389.600 92.141,389.240 92.000,388.800 92.000 C 388.360 92.000,388.000 91.820,388.000 91.600 C 388.000 91.380,387.640 91.200,387.200 91.200 C 386.760 91.200,386.400 91.020,386.400 90.800 C 386.400 90.580,385.860 90.400,385.200 90.400 C 384.540 90.400,384.000 90.220,384.000 90.000 C 384.000 89.780,383.280 89.600,382.400 89.600 C 381.520 89.600,380.800 89.420,380.800 89.200 C 380.800 88.959,379.133 88.800,376.600 88.800 C 374.067 88.800,372.400 88.959,372.400 89.200 C 372.400 89.420,371.680 89.600,370.800 89.600 C 369.920 89.600,369.200 89.780,369.200 90.000 C 369.200 90.220,368.574 90.400,367.809 90.400 C 366.528 90.400,365.711 89.690,357.457 81.400 C 352.528 76.450,348.287 72.400,348.031 72.400 C 347.776 72.400,347.180 72.040,346.708 71.600 C 345.766 70.723,339.600 70.376,339.600 71.200 C 339.600 71.420,339.325 71.600,338.989 71.600 C 337.832 71.600,334.800 75.066,334.800 76.389 C 334.800 77.055,334.620 77.600,334.400 77.600 C 334.180 77.600,334.000 78.320,334.000 79.200 C 334.000 80.080,334.180 80.800,334.400 80.800 C 334.620 80.800,334.800 81.340,334.800 82.000 C 334.800 82.660,334.980 83.200,335.200 83.200 C 335.420 83.200,335.600 83.477,335.600 83.815 C 335.600 84.154,337.265 86.049,339.300 88.028 C 341.335 90.006,343.127 91.754,343.282 91.912 C 343.437 92.070,345.642 94.313,348.182 96.896 C 350.722 99.478,352.800 101.781,352.800 102.013 C 352.800 102.762,345.603 109.606,344.282 110.113 C 343.907 110.257,343.600 110.561,343.600 110.787 C 343.600 111.014,343.418 111.200,343.196 111.200 C 342.641 111.200,289.600 58.117,289.600 57.561 C 289.600 57.316,290.005 56.617,290.500 56.008 C 290.995 55.399,291.760 54.393,292.200 53.773 C 292.640 53.152,295.790 49.822,299.200 46.371 C 306.181 39.307,308.355 36.723,308.678 35.110 C 308.800 34.500,309.058 34.000,309.250 34.000 C 309.443 34.000,309.600 33.640,309.600 33.200 C 309.600 32.760,309.780 32.400,310.000 32.400 C 310.220 32.400,310.400 31.680,310.400 30.800 C 310.400 29.920,310.580 29.200,310.800 29.200 C 311.048 29.200,311.200 27.000,311.200 23.400 C 311.200 19.800,311.048 17.600,310.800 17.600 C 310.580 17.600,310.400 16.981,310.400 16.224 C 310.400 15.467,310.220 14.736,310.000 14.600 C 309.780 14.464,309.600 14.003,309.600 13.576 C 309.600 13.149,309.434 12.800,309.232 12.800 C 309.029 12.800,308.751 12.286,308.613 11.657 C 308.475 11.029,307.752 9.814,307.007 8.957 C 306.262 8.101,305.235 6.908,304.726 6.307 C 304.217 5.706,303.647 5.211,303.460 5.207 C 303.274 5.203,302.617 4.660,302.000 4.000 C 301.383 3.340,300.591 2.800,300.240 2.800 C 299.888 2.800,299.600 2.620,299.600 2.400 C 299.600 2.180,299.240 2.000,298.800 2.000 C 298.360 2.000,298.000 1.820,298.000 1.600 C 298.000 1.380,297.655 1.200,297.233 1.200 C 296.812 1.200,296.395 0.984,296.306 0.719 C 296.143 0.230,282.951 -0.139,280.100 0.266 M291.628 16.618 C 297.487 20.316,296.944 25.511,289.945 32.713 C 286.874 35.873,283.954 38.996,279.375 44.018 C 276.132 47.575,271.354 55.561,269.214 61.000 C 269.041 61.440,268.711 62.273,268.480 62.852 C 267.870 64.382,266.135 71.349,265.554 74.600 C 264.736 79.179,264.939 89.843,265.940 94.800 C 269.212 111.022,269.263 111.439,267.900 111.009 C 267.405 110.853,266.503 110.631,265.895 110.516 C 265.287 110.402,264.692 110.149,264.571 109.954 C 264.451 109.759,264.001 109.600,263.571 109.600 C 263.141 109.600,262.477 109.438,262.095 109.239 C 261.443 108.900,260.025 108.490,256.200 107.534 C 252.561 106.624,251.605 106.245,251.422 105.638 C 250.711 103.284,250.267 100.611,248.991 91.000 C 247.632 80.764,249.273 67.718,253.267 57.000 C 254.423 53.898,258.312 45.605,258.800 45.200 C 258.933 45.090,259.352 44.333,259.731 43.519 C 260.110 42.704,260.640 41.804,260.910 41.519 C 261.179 41.233,262.196 39.830,263.170 38.400 C 265.251 35.343,268.035 32.066,273.016 26.813 C 275.005 24.716,277.705 21.848,279.016 20.440 C 283.672 15.441,287.788 14.194,291.628 16.618 M316.230 49.624 C 315.807 50.051,315.237 50.400,314.964 50.400 C 314.690 50.400,314.228 50.940,313.936 51.600 C 313.644 52.260,313.269 52.800,313.102 52.800 C 312.936 52.800,312.800 53.149,312.800 53.576 C 312.800 54.003,312.620 54.464,312.400 54.600 C 312.180 54.736,312.000 55.816,312.000 57.000 C 312.000 58.184,312.180 59.264,312.400 59.400 C 312.620 59.536,312.800 59.997,312.800 60.424 C 312.800 60.851,312.980 61.200,313.200 61.200 C 313.420 61.200,313.600 61.483,313.600 61.829 C 313.600 62.547,314.534 63.600,315.171 63.600 C 315.407 63.600,315.600 63.780,315.600 64.000 C 315.600 64.220,315.870 64.400,316.200 64.400 C 316.530 64.400,316.800 64.580,316.800 64.800 C 316.800 65.658,324.340 65.286,324.893 64.400 C 325.168 63.960,325.694 63.600,326.063 63.600 C 326.431 63.600,326.972 63.060,327.264 62.400 C 327.556 61.740,327.931 61.200,328.098 61.200 C 328.264 61.200,328.400 60.660,328.400 60.000 C 328.400 59.340,328.580 58.800,328.800 58.800 C 329.020 58.800,329.200 57.990,329.200 57.000 C 329.200 56.010,329.020 55.200,328.800 55.200 C 328.580 55.200,328.400 54.660,328.400 54.000 C 328.400 53.340,328.264 52.800,328.098 52.800 C 327.931 52.800,327.556 52.260,327.264 51.600 C 326.972 50.940,326.431 50.400,326.063 50.400 C 325.694 50.400,325.168 50.040,324.893 49.600 C 324.160 48.426,317.400 48.444,316.230 49.624 M303.416 96.580 C 315.177 108.340,324.800 118.240,324.800 118.580 C 324.800 119.088,324.223 119.200,321.600 119.200 C 319.733 119.200,318.400 119.367,318.400 119.600 C 318.400 119.820,317.871 120.000,317.224 120.000 C 316.577 120.000,315.936 119.820,315.800 119.600 C 315.664 119.380,313.954 119.200,312.000 119.200 C 310.046 119.200,308.336 119.020,308.200 118.800 C 308.064 118.580,307.254 118.400,306.400 118.400 C 305.546 118.400,304.736 118.220,304.600 118.000 C 304.464 117.780,303.654 117.600,302.800 117.600 C 301.946 117.600,301.136 117.420,301.000 117.200 C 300.864 116.980,299.989 116.800,299.056 116.800 C 298.123 116.800,297.189 116.637,296.980 116.439 C 296.771 116.240,295.790 115.976,294.800 115.851 C 290.534 115.316,289.378 115.097,289.020 114.759 C 288.811 114.562,288.201 114.400,287.664 114.400 C 286.299 114.400,285.628 113.320,285.613 111.100 C 285.606 110.055,285.420 109.200,285.200 109.200 C 284.980 109.200,284.800 108.300,284.800 107.200 C 284.800 106.100,284.620 105.200,284.400 105.200 C 284.180 105.200,284.000 104.300,284.000 103.200 C 284.000 102.100,283.820 101.200,283.600 101.200 C 283.380 101.200,283.200 100.401,283.200 99.424 C 283.200 98.447,283.020 97.536,282.800 97.400 C 282.580 97.264,282.400 96.454,282.400 95.600 C 282.400 94.746,282.220 93.936,282.000 93.800 C 281.780 93.664,281.600 92.483,281.600 91.176 C 281.600 89.859,281.422 88.800,281.200 88.800 C 280.953 88.800,280.800 86.741,280.800 83.424 C 280.800 80.271,280.965 77.945,281.200 77.800 C 281.420 77.664,281.600 77.023,281.600 76.376 C 281.600 74.672,280.291 73.460,303.416 96.580 M381.161 106.554 C 384.455 108.885,385.527 113.114,383.710 116.613 C 382.462 119.017,367.599 133.408,363.128 136.542 C 361.078 137.980,359.169 139.358,358.886 139.606 C 358.038 140.351,348.101 145.600,347.540 145.600 C 347.348 145.600,346.338 145.978,345.296 146.440 C 344.253 146.902,343.040 147.439,342.600 147.633 C 330.333 153.049,310.663 153.049,287.000 147.631 C 286.120 147.430,284.320 147.056,283.000 146.800 C 281.680 146.544,279.880 146.184,279.000 146.000 C 278.120 145.816,276.320 145.456,275.000 145.200 C 266.158 143.487,261.914 142.378,259.505 141.153 C 259.123 140.959,258.484 140.800,258.085 140.800 C 257.686 140.800,257.189 140.651,256.980 140.470 C 256.771 140.288,255.790 139.907,254.800 139.623 C 253.810 139.339,252.550 138.969,252.000 138.800 C 250.872 138.454,248.337 137.780,246.100 137.233 C 236.550 134.897,220.029 134.526,210.400 136.430 C 204.125 137.671,196.540 139.680,195.400 140.402 C 195.180 140.542,194.190 140.900,193.200 141.198 C 192.210 141.495,191.229 141.888,191.020 142.070 C 190.811 142.251,190.316 142.400,189.920 142.400 C 189.524 142.400,189.200 142.580,189.200 142.800 C 189.200 143.020,188.955 143.200,188.655 143.200 C 188.138 143.200,183.816 145.335,180.800 147.080 C 175.981 149.870,174.194 151.042,170.766 153.666 C 158.626 162.958,149.615 173.913,142.691 187.800 C 142.033 189.120,141.317 190.650,141.101 191.200 C 140.884 191.750,140.548 192.513,140.353 192.895 C 140.159 193.277,140.000 193.774,140.000 193.999 C 140.000 194.224,139.661 195.172,139.247 196.104 C 138.371 198.078,137.855 199.573,137.279 201.800 C 137.052 202.680,136.674 204.120,136.439 205.000 C 135.479 208.602,135.205 210.064,134.421 215.783 C 133.447 222.879,133.352 231.350,134.173 237.948 C 134.897 243.774,134.298 244.487,130.000 242.912 C 129.045 242.563,123.575 241.496,119.891 240.941 C 117.499 240.581,117.442 240.280,117.454 228.200 C 117.467 215.280,118.644 206.698,121.705 197.200 C 122.024 196.210,122.514 194.590,122.794 193.600 C 123.277 191.895,123.507 191.291,125.041 187.700 C 125.393 186.875,125.843 185.795,126.041 185.300 C 127.024 182.838,127.374 182.046,128.298 180.200 C 129.292 178.214,129.954 176.989,132.732 172.000 C 134.024 169.679,137.469 164.583,139.021 162.695 C 139.339 162.308,139.600 161.857,139.600 161.693 C 139.600 161.530,140.275 160.669,141.100 159.782 C 141.925 158.894,143.433 157.185,144.452 155.984 C 146.920 153.074,150.412 149.502,153.642 146.586 C 156.365 144.127,156.568 143.957,159.601 141.606 C 160.591 140.839,161.638 139.984,161.929 139.706 C 162.219 139.428,162.611 139.200,162.800 139.200 C 162.989 139.200,163.383 138.975,163.677 138.700 C 166.081 136.449,178.246 129.608,183.500 127.552 C 186.636 126.325,188.541 125.537,189.295 125.153 C 189.677 124.959,190.341 124.800,190.771 124.800 C 191.201 124.800,191.664 124.620,191.800 124.400 C 191.936 124.180,192.476 124.000,193.000 124.000 C 193.524 124.000,194.051 123.841,194.171 123.646 C 194.292 123.451,194.887 123.193,195.495 123.071 C 196.757 122.818,199.069 122.250,201.400 121.622 C 210.467 119.176,231.325 118.035,240.000 119.510 C 246.152 120.556,247.845 120.863,249.600 121.252 C 251.619 121.699,254.099 122.339,255.600 122.800 C 256.150 122.969,257.410 123.329,258.400 123.599 C 260.119 124.069,260.883 124.336,262.900 125.174 C 263.395 125.379,264.520 125.776,265.400 126.055 C 266.280 126.335,267.171 126.707,267.380 126.882 C 267.589 127.057,268.343 127.200,269.056 127.200 C 269.769 127.200,270.464 127.380,270.600 127.600 C 270.736 127.820,271.311 128.000,271.877 128.000 C 272.444 128.000,273.558 128.167,274.354 128.372 C 275.149 128.576,276.880 128.951,278.200 129.204 C 279.520 129.458,281.320 129.816,282.200 130.000 C 283.080 130.184,284.880 130.544,286.200 130.800 C 287.520 131.056,289.320 131.416,290.200 131.600 C 291.080 131.784,292.790 132.125,294.000 132.358 C 295.210 132.590,298.000 133.143,300.200 133.586 C 319.592 137.496,332.414 135.713,348.600 126.857 C 349.260 126.495,349.890 126.098,350.000 125.974 C 350.110 125.849,351.100 125.143,352.200 124.404 C 355.138 122.430,359.073 118.936,365.600 112.505 C 374.041 104.187,376.492 103.250,381.161 106.554 M233.420 151.568 C 233.629 151.770,234.970 152.032,236.400 152.150 C 240.723 152.508,242.800 152.861,242.800 153.240 C 242.800 153.438,243.610 153.600,244.600 153.600 C 246.115 153.600,246.400 153.723,246.400 154.376 C 246.400 154.803,246.580 155.264,246.800 155.400 C 247.020 155.536,247.200 156.346,247.200 157.200 C 247.200 158.054,247.380 158.864,247.600 159.000 C 247.820 159.136,248.000 160.047,248.000 161.024 C 248.000 162.001,248.180 162.800,248.400 162.800 C 248.641 162.800,248.800 164.459,248.800 166.976 C 248.800 169.329,248.975 171.261,249.200 171.400 C 249.420 171.536,249.600 172.706,249.600 174.000 C 249.600 175.294,249.420 176.464,249.200 176.600 C 248.975 176.739,248.800 178.663,248.800 181.000 C 248.800 183.337,248.625 185.261,248.400 185.400 C 248.180 185.536,248.000 186.537,248.000 187.624 C 248.000 188.711,247.820 189.600,247.600 189.600 C 247.380 189.600,247.200 190.140,247.200 190.800 C 247.200 192.457,246.960 192.334,244.000 189.164 C 242.570 187.633,239.375 184.359,236.900 181.890 C 231.837 176.838,227.272 172.273,220.108 165.099 C 217.417 162.405,213.756 158.797,211.972 157.083 C 207.635 152.915,207.588 152.979,215.600 152.156 C 216.810 152.031,217.971 151.765,218.180 151.565 C 218.678 151.087,232.926 151.090,233.420 151.568 M268.700 159.025 C 269.525 159.148,270.560 159.405,271.000 159.594 C 271.440 159.784,272.610 160.056,273.600 160.199 C 281.408 161.330,281.059 161.058,281.416 166.275 C 281.759 171.280,281.371 185.130,280.794 188.500 C 280.577 189.765,280.217 191.835,279.992 193.100 C 279.768 194.365,279.475 196.259,279.341 197.308 C 279.206 198.358,278.940 199.314,278.748 199.432 C 278.557 199.550,278.400 200.089,278.400 200.629 C 278.400 201.169,278.242 201.923,278.049 202.305 C 277.713 202.971,277.527 203.572,276.408 207.600 C 276.134 208.590,275.725 209.850,275.501 210.400 C 275.277 210.950,274.955 211.760,274.787 212.200 C 274.619 212.640,274.208 213.630,273.874 214.400 C 273.539 215.170,272.951 216.610,272.566 217.600 C 270.218 223.642,263.066 235.771,258.531 241.400 C 254.468 246.444,245.616 255.559,242.600 257.804 C 241.720 258.459,240.910 259.107,240.800 259.244 C 238.405 262.219,222.947 271.384,214.400 274.896 C 213.255 275.367,211.843 275.933,210.400 276.500 C 209.850 276.716,209.087 277.052,208.705 277.247 C 208.323 277.441,207.659 277.600,207.229 277.600 C 206.799 277.600,206.336 277.780,206.200 278.000 C 206.064 278.220,205.524 278.400,205.000 278.400 C 204.476 278.400,203.948 278.560,203.827 278.756 C 203.706 278.951,203.021 279.208,202.304 279.327 C 201.587 279.445,200.280 279.726,199.400 279.952 C 187.895 282.895,171.113 284.130,161.000 282.777 C 154.223 281.871,148.356 280.702,143.000 279.192 C 142.340 279.006,141.350 278.737,140.800 278.594 C 140.250 278.450,139.440 278.186,139.000 278.007 C 138.560 277.828,137.570 277.464,136.800 277.200 C 136.030 276.936,134.950 276.533,134.400 276.306 C 131.748 275.210,131.818 275.230,127.600 274.394 C 126.610 274.197,124.900 273.840,123.800 273.600 C 121.843 273.173,119.923 272.780,116.100 272.025 C 115.055 271.818,113.660 271.532,113.000 271.389 C 111.052 270.968,105.927 269.921,104.200 269.592 C 103.320 269.425,100.170 268.782,97.200 268.165 C 92.158 267.116,91.151 267.040,82.000 267.023 C 70.889 267.002,67.650 267.542,59.400 270.789 C 54.175 272.846,45.886 277.816,42.414 280.975 C 36.933 285.960,35.506 287.285,32.503 290.173 C 26.604 295.847,23.397 296.894,19.496 294.420 C 13.759 290.782,14.121 284.857,20.436 279.036 C 21.846 277.735,24.902 274.903,27.226 272.742 C 32.288 268.036,38.032 263.469,40.800 261.949 C 41.350 261.647,41.890 261.302,42.000 261.181 C 42.110 261.061,43.190 260.472,44.400 259.872 C 45.610 259.273,47.320 258.377,48.200 257.882 C 49.080 257.388,50.520 256.737,51.400 256.438 C 52.280 256.138,53.720 255.576,54.600 255.189 C 57.075 254.102,56.905 254.155,64.200 252.213 C 74.801 249.392,88.856 249.531,103.000 252.596 C 105.578 253.155,108.213 253.690,114.000 254.831 C 115.210 255.070,116.920 255.416,117.800 255.600 C 118.680 255.784,120.480 256.143,121.800 256.397 C 123.120 256.652,124.830 257.019,125.600 257.213 C 126.370 257.408,127.585 257.665,128.300 257.784 C 129.015 257.903,130.185 258.097,130.900 258.216 C 133.279 258.612,135.356 259.235,138.100 260.374 C 138.595 260.579,139.720 260.976,140.600 261.255 C 141.480 261.535,142.371 261.907,142.580 262.082 C 142.789 262.257,143.376 262.400,143.885 262.400 C 144.394 262.400,145.123 262.562,145.505 262.761 C 146.237 263.141,148.080 263.653,151.400 264.398 C 152.500 264.645,154.030 265.001,154.800 265.190 C 159.356 266.304,162.845 266.571,173.000 266.585 C 184.663 266.601,186.410 266.412,195.200 264.177 C 196.630 263.813,198.297 263.424,198.905 263.312 C 199.513 263.200,200.108 262.949,200.229 262.754 C 200.349 262.559,200.853 262.400,201.348 262.400 C 201.844 262.400,202.995 262.040,203.906 261.600 C 204.816 261.160,205.752 260.800,205.986 260.800 C 206.220 260.800,206.723 260.638,207.105 260.440 C 207.487 260.242,209.780 259.125,212.200 257.958 C 222.000 253.230,229.555 247.997,237.548 240.400 C 238.127 239.850,239.770 238.050,241.200 236.401 C 242.630 234.751,244.022 233.166,244.294 232.878 C 246.862 230.158,252.051 222.252,254.847 216.800 C 256.031 214.490,257.091 212.510,257.202 212.400 C 257.313 212.290,257.640 211.480,257.929 210.600 C 258.217 209.720,258.621 208.595,258.826 208.100 C 259.032 207.605,259.401 206.705,259.647 206.100 C 259.892 205.495,260.252 204.687,260.447 204.305 C 260.641 203.923,260.800 203.259,260.800 202.829 C 260.800 202.399,260.960 201.948,261.156 201.827 C 261.351 201.706,261.608 201.021,261.727 200.304 C 261.930 199.076,262.284 197.559,263.246 193.800 C 264.272 189.790,265.178 181.380,265.296 174.768 C 265.392 169.399,264.749 160.889,264.179 159.966 C 263.585 159.005,264.388 158.310,265.804 158.557 C 266.572 158.691,267.875 158.901,268.700 159.025 M192.400 162.026 C 193.619 163.411,196.667 166.486,207.711 177.477 C 209.080 178.840,212.385 182.170,215.056 184.877 C 217.727 187.585,221.597 191.446,223.656 193.457 C 225.715 195.469,229.385 199.159,231.811 201.657 C 234.237 204.156,237.154 207.035,238.294 208.056 C 240.261 209.819,240.703 211.980,239.100 211.997 C 238.935 211.999,238.800 212.360,238.800 212.800 C 238.800 213.240,238.650 213.600,238.468 213.600 C 238.285 213.600,237.881 214.095,237.570 214.700 C 237.260 215.305,236.689 216.091,236.303 216.447 C 235.916 216.803,235.600 217.299,235.600 217.551 C 235.600 217.802,235.060 218.572,234.400 219.263 C 233.740 219.954,233.200 220.678,233.200 220.873 C 233.200 221.067,232.570 221.857,231.800 222.627 C 231.030 223.397,230.400 224.170,230.400 224.344 C 230.400 224.836,224.772 230.505,223.200 231.597 C 222.430 232.131,221.323 233.071,220.740 233.685 C 220.156 234.298,219.481 234.800,219.240 234.800 C 218.998 234.800,218.800 234.980,218.800 235.200 C 218.800 235.420,218.570 235.600,218.288 235.600 C 218.007 235.600,217.517 235.960,217.200 236.400 C 216.883 236.840,216.427 237.200,216.187 237.200 C 215.947 237.200,215.402 237.515,214.975 237.900 C 214.549 238.285,213.705 238.855,213.100 239.168 C 212.495 239.480,212.000 239.885,212.000 240.068 C 212.000 240.250,211.640 240.400,211.200 240.400 C 210.760 240.400,210.400 240.580,210.400 240.800 C 210.400 241.020,210.145 241.200,209.833 241.200 C 209.522 241.200,209.195 241.415,209.108 241.677 C 208.979 242.062,202.881 236.268,192.706 226.094 C 192.046 225.434,188.177 221.563,184.108 217.492 C 180.039 213.421,176.350 209.730,175.910 209.290 C 175.470 208.850,171.806 205.185,167.767 201.145 C 163.729 197.105,159.975 193.394,159.425 192.899 C 158.495 192.060,158.385 190.800,159.243 190.800 C 159.439 190.800,159.600 190.530,159.600 190.200 C 159.600 189.870,159.780 189.600,160.000 189.600 C 160.220 189.600,160.400 189.240,160.400 188.800 C 160.400 188.360,160.550 188.000,160.732 188.000 C 160.915 188.000,161.319 187.505,161.630 186.900 C 161.940 186.295,162.511 185.509,162.897 185.153 C 163.284 184.797,163.600 184.278,163.600 184.000 C 163.600 183.722,163.957 183.184,164.393 182.806 C 164.829 182.428,165.425 181.658,165.717 181.095 L 166.248 180.072 174.824 188.626 C 179.541 193.330,183.715 197.184,184.100 197.190 C 184.485 197.195,184.800 197.380,184.800 197.600 C 184.800 197.833,186.133 198.000,188.000 198.000 C 189.867 198.000,191.200 197.833,191.200 197.600 C 191.200 197.380,191.470 197.200,191.800 197.200 C 192.130 197.200,192.400 197.020,192.400 196.800 C 192.400 196.580,192.683 196.400,193.029 196.400 C 193.837 196.400,194.800 195.437,194.800 194.629 C 194.800 194.283,194.935 193.999,195.100 193.997 C 195.265 193.995,195.625 193.509,195.900 192.917 C 196.497 191.632,196.577 186.400,196.000 186.400 C 195.780 186.400,195.600 186.133,195.600 185.807 C 195.600 185.015,194.674 184.012,185.913 175.309 L 178.426 167.871 179.472 167.329 C 180.048 167.030,180.828 166.429,181.206 165.993 C 181.584 165.557,182.122 165.200,182.400 165.200 C 182.678 165.200,183.197 164.884,183.553 164.497 C 183.909 164.111,184.695 163.540,185.300 163.230 C 185.905 162.919,186.400 162.515,186.400 162.332 C 186.400 162.150,186.760 162.000,187.200 162.000 C 187.640 162.000,188.000 161.863,188.000 161.695 C 188.000 161.319,189.583 160.509,190.400 160.468 C 190.730 160.451,191.630 161.152,192.400 162.026 M206.210 204.124 C 200.319 207.675,200.370 216.154,206.303 219.500 C 207.368 220.101,213.600 220.186,213.600 219.600 C 213.600 219.380,213.876 219.200,214.213 219.200 C 214.551 219.200,215.451 218.576,216.213 217.813 C 216.976 217.051,217.600 216.151,217.600 215.813 C 217.600 215.476,217.780 215.200,218.000 215.200 C 218.586 215.200,218.501 208.968,217.900 207.903 C 217.257 206.763,215.237 204.743,214.097 204.100 C 212.973 203.466,207.272 203.483,206.210 204.124 M157.600 215.664 C 160.350 218.538,163.575 221.814,164.766 222.944 C 167.422 225.465,176.653 234.704,179.453 237.644 C 180.582 238.830,183.498 241.690,185.933 244.000 C 190.813 248.630,190.929 248.800,189.200 248.800 C 188.540 248.800,188.000 248.980,188.000 249.200 C 188.000 249.420,187.111 249.600,186.024 249.600 C 184.937 249.600,183.936 249.780,183.800 250.000 C 183.660 250.227,181.663 250.400,179.176 250.400 C 176.525 250.400,174.800 250.558,174.800 250.800 C 174.800 251.022,173.741 251.200,172.424 251.200 C 171.117 251.200,169.936 251.020,169.800 250.800 C 169.661 250.575,167.729 250.400,165.376 250.400 C 162.859 250.400,161.200 250.241,161.200 250.000 C 161.200 249.780,160.401 249.600,159.424 249.600 C 158.447 249.600,157.536 249.420,157.400 249.200 C 157.264 248.980,156.443 248.800,155.576 248.800 C 154.709 248.800,154.000 248.620,154.000 248.400 C 154.000 248.180,153.550 248.000,153.000 248.000 C 152.081 248.000,152.000 247.853,152.000 246.200 C 152.000 245.210,151.838 244.400,151.640 244.400 C 151.261 244.400,150.908 242.323,150.550 238.000 C 150.432 236.570,150.170 235.229,149.968 235.020 C 149.459 234.494,149.490 219.715,150.000 219.400 C 150.220 219.264,150.400 218.274,150.400 217.200 C 150.400 216.126,150.580 215.136,150.800 215.000 C 151.020 214.864,151.200 213.989,151.200 213.056 C 151.200 211.558,151.735 210.362,152.380 210.420 C 152.501 210.430,154.850 212.790,157.600 215.664 M87.400 282.800 C 87.536 283.020,88.616 283.200,89.800 283.200 C 90.984 283.200,92.064 283.380,92.200 283.600 C 92.336 283.820,93.247 284.000,94.224 284.000 C 95.201 284.000,96.000 284.180,96.000 284.400 C 96.000 284.620,96.900 284.800,98.000 284.800 C 99.100 284.800,100.000 284.963,100.000 285.161 C 100.000 285.360,100.855 285.623,101.900 285.746 C 105.937 286.220,107.414 286.495,107.780 286.841 C 107.989 287.038,108.889 287.206,109.780 287.213 C 112.392 287.233,112.650 287.592,113.648 292.600 C 113.868 293.700,114.144 295.410,114.262 296.400 C 114.381 297.390,114.640 298.371,114.839 298.580 C 115.037 298.789,115.200 299.723,115.200 300.656 C 115.200 301.589,115.380 302.464,115.600 302.600 C 115.820 302.736,116.000 303.546,116.000 304.400 C 116.000 305.254,116.180 306.064,116.400 306.200 C 116.620 306.336,116.800 307.157,116.800 308.024 C 116.800 308.891,116.980 309.600,117.200 309.600 C 117.438 309.600,117.600 311.125,117.600 313.376 C 117.600 315.463,117.779 317.263,118.000 317.400 C 118.220 317.536,118.400 318.177,118.400 318.824 C 118.400 319.471,118.220 320.000,118.000 320.000 C 117.767 320.000,117.600 321.325,117.600 323.176 C 117.600 324.923,117.427 326.460,117.215 326.591 C 116.880 326.798,73.600 283.943,73.600 283.404 C 73.600 283.292,74.140 283.200,74.800 283.200 C 75.460 283.200,76.000 283.020,76.000 282.800 C 76.000 282.552,78.125 282.400,81.576 282.400 C 84.863 282.400,87.254 282.564,87.400 282.800 M133.172 291.649 C 133.957 291.896,134.913 292.256,135.295 292.449 C 135.677 292.642,136.341 292.800,136.771 292.800 C 137.201 292.800,137.652 292.960,137.773 293.156 C 137.894 293.351,138.624 293.621,139.396 293.756 C 140.168 293.890,141.432 294.110,142.204 294.244 C 142.976 294.379,143.706 294.649,143.827 294.844 C 143.948 295.040,144.542 295.200,145.147 295.200 C 146.850 295.200,147.664 296.057,148.025 298.230 C 148.204 299.314,148.623 301.730,148.954 303.600 C 151.465 317.767,150.315 333.401,145.960 344.300 C 145.762 344.795,145.444 345.605,145.254 346.100 C 144.404 348.306,144.006 349.192,142.509 352.200 C 140.320 356.598,138.398 360.146,138.071 360.394 C 137.921 360.507,137.263 361.410,136.609 362.400 C 133.756 366.720,131.413 369.417,124.865 375.918 C 115.735 384.983,112.945 386.269,108.502 383.464 C 102.313 379.557,102.990 374.556,110.720 367.076 C 113.264 364.614,115.718 362.236,116.173 361.791 C 119.663 358.377,124.313 352.015,126.837 347.200 C 127.587 345.770,128.335 344.540,128.500 344.467 C 128.665 344.393,128.800 344.109,128.800 343.836 C 128.800 343.562,129.275 342.182,129.855 340.769 C 130.435 339.356,131.053 337.660,131.227 337.000 C 133.634 327.904,134.221 323.205,133.865 315.879 C 133.611 310.666,133.350 308.891,131.173 297.600 C 129.836 290.665,129.856 290.606,133.172 291.649 M54.200 312.400 C 54.064 312.620,53.599 312.800,53.166 312.800 C 52.254 312.800,48.800 316.096,48.800 316.966 C 48.800 317.289,48.620 317.664,48.400 317.800 C 48.180 317.936,48.000 319.196,48.000 320.600 C 48.000 322.004,48.180 323.264,48.400 323.400 C 48.620 323.536,48.800 323.911,48.800 324.234 C 48.800 325.247,52.273 328.400,53.389 328.400 C 53.945 328.400,54.400 328.580,54.400 328.800 C 54.400 329.020,55.390 329.200,56.600 329.200 C 57.810 329.200,58.800 329.020,58.800 328.800 C 58.800 328.580,59.215 328.400,59.722 328.400 C 60.681 328.400,63.600 326.026,63.600 325.246 C 63.600 325.001,63.780 324.800,64.000 324.800 C 64.220 324.800,64.400 324.361,64.400 323.824 C 64.400 323.287,64.580 322.736,64.800 322.600 C 65.020 322.464,65.200 321.643,65.200 320.776 C 65.200 319.909,65.020 319.200,64.800 319.200 C 64.580 319.200,64.400 318.660,64.400 318.000 C 64.400 317.340,64.220 316.800,64.000 316.800 C 63.780 316.800,63.600 316.522,63.600 316.182 C 63.600 315.382,61.818 313.600,61.018 313.600 C 60.678 313.600,60.400 313.420,60.400 313.200 C 60.400 312.980,60.051 312.800,59.624 312.800 C 59.197 312.800,58.736 312.620,58.600 312.400 C 58.464 312.180,57.474 312.000,56.400 312.000 C 55.326 312.000,54.336 312.180,54.200 312.400 " stroke="none" fill="#040404" fill-rule="evenodd"></path><path id="path3" d="M283.178 16.740 C 282.200 17.367,280.327 19.032,279.016 20.440 C 277.705 21.848,275.005 24.716,273.016 26.813 C 268.035 32.066,265.251 35.343,263.170 38.400 C 262.196 39.830,261.179 41.233,260.910 41.519 C 260.640 41.804,260.110 42.704,259.731 43.519 C 259.352 44.333,258.933 45.090,258.800 45.200 C 256.779 46.875,249.925 65.558,250.034 69.094 C 250.054 69.724,250.393 68.909,250.823 67.200 C 251.601 64.110,252.144 62.178,253.020 59.396 C 253.707 57.216,256.453 50.295,256.828 49.800 C 256.995 49.580,257.890 47.960,258.819 46.200 C 262.141 39.901,265.817 35.249,275.954 24.515 C 282.279 17.817,283.631 16.691,285.937 16.203 C 291.271 15.074,296.247 20.177,294.747 25.238 C 294.099 27.426,294.562 26.842,287.378 34.544 C 284.065 38.095,280.883 41.540,280.305 42.200 C 279.728 42.860,278.780 43.940,278.198 44.600 C 276.575 46.443,273.500 51.071,271.688 54.400 C 268.848 59.617,267.595 63.154,265.311 72.400 C 264.532 75.551,264.355 91.314,265.073 93.600 C 265.314 94.370,265.742 96.350,266.023 98.000 C 266.305 99.650,266.933 102.980,267.419 105.400 C 268.485 110.702,268.491 110.693,264.700 109.421 C 263.036 108.862,259.552 107.858,256.957 107.189 C 251.199 105.704,251.870 106.527,250.786 99.624 C 250.336 96.755,250.000 96.022,250.000 97.907 C 250.000 99.021,250.915 104.010,251.418 105.638 C 251.605 106.245,252.562 106.625,256.200 107.534 C 260.025 108.490,261.443 108.900,262.095 109.239 C 262.477 109.438,263.141 109.600,263.571 109.600 C 264.001 109.600,264.451 109.759,264.571 109.954 C 264.692 110.149,265.287 110.402,265.895 110.516 C 266.503 110.631,267.405 110.853,267.900 111.009 C 269.263 111.439,269.212 111.022,265.940 94.800 C 264.939 89.843,264.736 79.179,265.554 74.600 C 266.135 71.349,267.870 64.382,268.480 62.852 C 268.711 62.273,269.041 61.440,269.214 61.000 C 271.354 55.561,276.132 47.575,279.375 44.018 C 283.954 38.996,286.874 35.873,289.945 32.713 C 294.253 28.280,295.584 26.081,295.593 23.378 C 295.614 17.304,288.353 13.422,283.178 16.740 M249.628 70.400 C 248.185 78.631,248.319 94.903,249.841 96.364 C 249.976 96.494,249.971 95.700,249.830 94.600 C 249.250 90.075,249.115 77.775,249.610 74.564 C 249.885 72.784,250.009 71.074,249.886 70.764 C 249.763 70.454,249.647 70.290,249.628 70.400 M264.169 158.938 C 264.037 159.281,264.041 159.743,264.179 159.966 C 264.316 160.188,264.624 162.311,264.863 164.685 C 265.574 171.759,265.979 174.061,265.762 169.800 C 265.661 167.820,265.383 164.808,265.144 163.106 C 264.594 159.186,264.741 158.754,266.476 159.203 C 267.204 159.392,268.790 159.737,270.000 159.971 C 275.473 161.027,280.136 162.002,280.249 162.116 C 281.678 163.544,281.274 182.298,279.605 192.000 C 278.605 197.816,278.433 198.702,278.031 200.100 C 277.794 200.925,277.435 202.185,277.233 202.900 C 274.555 212.384,270.462 221.845,265.043 231.077 C 264.243 232.440,263.354 233.790,263.067 234.077 C 262.780 234.365,261.552 236.085,260.338 237.899 C 254.944 245.960,242.885 257.761,233.800 263.868 C 227.924 267.818,214.776 274.800,213.212 274.800 C 212.853 274.800,212.389 274.963,212.180 275.162 C 211.684 275.635,202.832 278.575,200.000 279.208 C 198.790 279.478,197.350 279.838,196.800 280.007 C 194.716 280.648,189.863 281.445,182.379 282.375 C 171.985 283.667,155.609 282.157,143.900 278.827 C 143.075 278.592,141.815 278.235,141.100 278.033 C 138.406 277.273,134.851 276.011,133.000 275.157 C 132.060 274.723,131.213 274.541,111.600 270.559 C 91.195 266.417,91.312 266.437,85.200 266.154 C 77.326 265.789,72.288 266.395,63.400 268.777 C 54.377 271.195,46.751 276.136,34.352 287.600 C 25.889 295.424,25.175 295.823,21.562 294.743 C 14.469 292.623,14.169 285.693,20.898 279.397 C 22.494 277.903,25.060 275.487,26.600 274.028 C 34.341 266.695,40.660 262.175,48.800 258.152 C 50.847 257.140,58.249 254.278,59.600 253.976 C 60.370 253.804,62.440 253.284,64.200 252.821 C 68.997 251.558,72.670 251.125,80.400 250.911 C 87.866 250.704,93.268 251.252,103.000 253.205 C 103.880 253.381,105.680 253.739,107.000 254.000 C 109.258 254.446,110.355 254.675,114.500 255.565 C 115.435 255.766,116.920 256.045,117.800 256.186 C 118.680 256.326,120.030 256.599,120.800 256.791 C 121.570 256.983,123.190 257.334,124.400 257.571 C 133.879 259.429,134.631 259.610,137.800 260.790 C 155.103 267.233,175.341 269.259,189.800 265.996 C 197.912 264.165,200.638 263.389,205.400 261.551 C 209.081 260.131,218.535 255.561,218.733 255.106 C 218.807 254.938,219.044 254.800,219.261 254.800 C 219.478 254.800,220.441 254.260,221.400 253.600 C 222.359 252.940,223.266 252.400,223.414 252.400 C 224.040 252.400,231.683 246.466,235.124 243.309 C 248.898 230.671,258.305 215.043,263.000 196.996 C 264.690 190.499,265.226 186.762,265.382 180.400 C 265.449 177.650,265.436 176.390,265.352 177.600 C 264.994 182.815,263.892 191.303,263.249 193.800 C 262.319 197.407,261.931 199.066,261.727 200.304 C 261.608 201.021,261.351 201.706,261.156 201.827 C 260.960 201.948,260.800 202.399,260.800 202.829 C 260.800 203.259,260.641 203.923,260.447 204.305 C 260.252 204.687,259.892 205.495,259.647 206.100 C 259.401 206.705,259.032 207.605,258.826 208.100 C 258.621 208.595,258.217 209.720,257.929 210.600 C 257.640 211.480,257.313 212.290,257.202 212.400 C 257.091 212.510,256.031 214.490,254.847 216.800 C 252.051 222.252,246.862 230.158,244.294 232.878 C 244.022 233.166,242.630 234.751,241.200 236.401 C 239.770 238.050,238.127 239.850,237.548 240.400 C 229.555 247.997,222.000 253.230,212.200 257.958 C 209.780 259.125,207.487 260.242,207.105 260.440 C 206.723 260.638,206.220 260.800,205.986 260.800 C 205.752 260.800,204.816 261.160,203.906 261.600 C 202.995 262.040,201.844 262.400,201.348 262.400 C 200.853 262.400,200.349 262.559,200.229 262.754 C 200.108 262.949,199.513 263.200,198.905 263.312 C 198.297 263.424,196.630 263.813,195.200 264.177 C 186.410 266.412,184.663 266.601,173.000 266.585 C 162.845 266.571,159.356 266.304,154.800 265.190 C 154.030 265.001,152.500 264.645,151.400 264.398 C 148.080 263.653,146.237 263.141,145.505 262.761 C 145.123 262.562,144.394 262.400,143.885 262.400 C 143.376 262.400,142.789 262.257,142.580 262.082 C 142.371 261.907,141.480 261.535,140.600 261.255 C 139.720 260.976,138.595 260.579,138.100 260.374 C 135.356 259.235,133.279 258.612,130.900 258.216 C 130.185 258.097,129.015 257.903,128.300 257.784 C 127.585 257.665,126.370 257.408,125.600 257.213 C 124.830 257.019,123.120 256.652,121.800 256.397 C 120.480 256.143,118.680 255.784,117.800 255.600 C 116.920 255.416,115.210 255.070,114.000 254.831 C 108.213 253.690,105.578 253.155,103.000 252.596 C 88.856 249.531,74.801 249.392,64.200 252.213 C 56.905 254.155,57.075 254.102,54.600 255.189 C 53.720 255.576,52.280 256.138,51.400 256.438 C 50.520 256.737,49.080 257.388,48.200 257.882 C 47.320 258.377,45.610 259.273,44.400 259.872 C 43.190 260.472,42.110 261.061,42.000 261.181 C 41.890 261.302,41.350 261.647,40.800 261.949 C 38.032 263.469,32.288 268.036,27.226 272.742 C 24.902 274.903,21.846 277.735,20.436 279.036 C 14.121 284.857,13.759 290.782,19.496 294.420 C 23.397 296.894,26.604 295.847,32.503 290.173 C 35.506 287.285,36.933 285.960,42.414 280.975 C 45.886 277.816,54.175 272.846,59.400 270.789 C 67.650 267.542,70.889 267.002,82.000 267.023 C 91.151 267.040,92.158 267.116,97.200 268.165 C 100.170 268.782,103.320 269.425,104.200 269.592 C 105.927 269.921,111.052 270.968,113.000 271.389 C 113.660 271.532,115.055 271.818,116.100 272.025 C 119.923 272.780,121.843 273.173,123.800 273.600 C 124.900 273.840,126.610 274.197,127.600 274.394 C 131.818 275.230,131.748 275.210,134.400 276.306 C 134.950 276.533,136.030 276.936,136.800 277.200 C 137.570 277.464,138.560 277.828,139.000 278.007 C 139.440 278.186,140.250 278.450,140.800 278.594 C 141.350 278.737,142.340 279.006,143.000 279.192 C 147.002 280.321,149.089 280.799,153.200 281.531 C 168.818 284.310,184.453 283.776,199.400 279.952 C 200.280 279.726,201.587 279.445,202.304 279.327 C 203.021 279.208,203.706 278.951,203.827 278.756 C 203.948 278.560,204.476 278.400,205.000 278.400 C 205.524 278.400,206.064 278.220,206.200 278.000 C 206.336 277.780,206.799 277.600,207.229 277.600 C 207.659 277.600,208.323 277.441,208.705 277.247 C 209.087 277.052,209.850 276.716,210.400 276.500 C 211.843 275.933,213.255 275.367,214.400 274.896 C 222.947 271.384,238.405 262.219,240.800 259.244 C 240.910 259.107,241.720 258.459,242.600 257.804 C 245.616 255.559,254.468 246.444,258.531 241.400 C 263.066 235.771,270.218 223.642,272.566 217.600 C 272.951 216.610,273.539 215.170,273.874 214.400 C 274.208 213.630,274.619 212.640,274.787 212.200 C 274.955 211.760,275.277 210.950,275.501 210.400 C 275.725 209.850,276.134 208.590,276.408 207.600 C 277.527 203.572,277.713 202.971,278.049 202.305 C 278.242 201.923,278.400 201.169,278.400 200.629 C 278.400 200.089,278.557 199.550,278.748 199.432 C 278.940 199.314,279.206 198.358,279.341 197.308 C 279.475 196.259,279.768 194.365,279.992 193.100 C 280.217 191.835,280.577 189.765,280.794 188.500 C 281.371 185.130,281.759 171.280,281.416 166.275 C 281.059 161.058,281.408 161.330,273.600 160.199 C 272.610 160.056,271.440 159.784,271.000 159.594 C 270.560 159.405,269.525 159.148,268.700 159.025 C 267.875 158.901,266.572 158.691,265.804 158.557 C 264.750 158.373,264.349 158.466,264.169 158.938 " stroke="none" fill="#2d4b5c" fill-rule="evenodd"></path><path id="path4" d="M375.060 105.097 C 373.149 105.372,371.637 106.556,365.600 112.505 C 359.073 118.936,355.138 122.430,352.200 124.404 C 351.100 125.143,350.110 125.849,350.000 125.974 C 349.890 126.098,349.260 126.495,348.600 126.857 C 332.414 135.713,319.592 137.496,300.200 133.586 C 298.000 133.143,295.210 132.590,294.000 132.358 C 292.790 132.125,291.080 131.784,290.200 131.600 C 289.320 131.416,287.520 131.056,286.200 130.800 C 284.880 130.544,283.080 130.184,282.200 130.000 C 281.320 129.816,279.520 129.458,278.200 129.204 C 276.880 128.951,275.149 128.576,274.354 128.372 C 273.558 128.167,272.444 128.000,271.877 128.000 C 271.311 128.000,270.736 127.820,270.600 127.600 C 270.464 127.380,269.769 127.200,269.056 127.200 C 268.343 127.200,267.589 127.057,267.380 126.882 C 267.171 126.707,266.280 126.335,265.400 126.055 C 264.520 125.776,263.395 125.379,262.900 125.174 C 260.883 124.336,260.119 124.069,258.400 123.599 C 257.410 123.329,256.150 122.969,255.600 122.800 C 254.099 122.339,251.619 121.699,249.600 121.252 C 247.845 120.863,246.152 120.556,240.000 119.510 C 231.325 118.035,210.467 119.176,201.400 121.622 C 199.069 122.250,196.757 122.818,195.495 123.071 C 194.887 123.193,194.292 123.451,194.171 123.646 C 194.051 123.841,193.524 124.000,193.000 124.000 C 192.476 124.000,191.936 124.180,191.800 124.400 C 191.664 124.620,191.201 124.800,190.771 124.800 C 190.341 124.800,189.677 124.959,189.295 125.153 C 188.541 125.537,186.636 126.325,183.500 127.552 C 178.246 129.608,166.081 136.449,163.677 138.700 C 163.383 138.975,162.989 139.200,162.800 139.200 C 162.611 139.200,162.219 139.428,161.929 139.706 C 161.638 139.984,160.591 140.839,159.601 141.606 C 156.568 143.957,156.365 144.127,153.642 146.586 C 150.412 149.502,146.920 153.074,144.452 155.984 C 143.433 157.185,141.925 158.894,141.100 159.782 C 140.275 160.669,139.600 161.530,139.600 161.693 C 139.600 161.857,139.339 162.308,139.021 162.695 C 137.469 164.583,134.024 169.679,132.732 172.000 C 129.954 176.989,129.292 178.214,128.298 180.200 C 127.374 182.046,127.024 182.838,126.041 185.300 C 125.843 185.795,125.393 186.875,125.041 187.700 C 123.507 191.291,123.277 191.895,122.794 193.600 C 122.514 194.590,122.024 196.210,121.705 197.200 C 118.644 206.698,117.467 215.280,117.454 228.200 C 117.442 240.280,117.499 240.581,119.891 240.941 C 123.575 241.496,129.045 242.563,130.000 242.912 C 134.298 244.487,134.897 243.774,134.173 237.948 C 133.352 231.350,133.447 222.879,134.421 215.783 C 135.205 210.064,135.479 208.602,136.439 205.000 C 136.674 204.120,137.052 202.680,137.279 201.800 C 137.855 199.573,138.371 198.078,139.247 196.104 C 139.661 195.172,140.000 194.224,140.000 193.999 C 140.000 193.774,140.159 193.277,140.353 192.895 C 140.548 192.513,140.884 191.750,141.101 191.200 C 146.150 178.385,157.909 163.507,170.766 153.666 C 174.194 151.042,175.981 149.870,180.800 147.080 C 183.816 145.335,188.138 143.200,188.655 143.200 C 188.955 143.200,189.200 143.020,189.200 142.800 C 189.200 142.580,189.524 142.400,189.920 142.400 C 190.316 142.400,190.811 142.251,191.020 142.070 C 191.229 141.888,192.210 141.495,193.200 141.198 C 194.190 140.900,195.180 140.542,195.400 140.402 C 196.540 139.680,204.125 137.671,210.400 136.430 C 220.029 134.526,236.550 134.897,246.100 137.233 C 248.337 137.780,250.872 138.454,252.000 138.800 C 252.550 138.969,253.810 139.339,254.800 139.623 C 255.790 139.907,256.771 140.288,256.980 140.470 C 257.189 140.651,257.686 140.800,258.085 140.800 C 258.484 140.800,259.123 140.959,259.505 141.153 C 261.914 142.378,266.158 143.487,275.000 145.200 C 276.320 145.456,278.120 145.816,279.000 146.000 C 279.880 146.184,281.680 146.544,283.000 146.800 C 284.320 147.056,286.120 147.430,287.000 147.631 C 310.663 153.049,330.333 153.049,342.600 147.633 C 343.040 147.439,344.253 146.902,345.296 146.440 C 346.338 145.978,347.348 145.600,347.540 145.600 C 348.101 145.600,358.038 140.351,358.886 139.606 C 359.169 139.358,361.078 137.980,363.128 136.542 C 367.599 133.408,382.462 119.017,383.710 116.613 C 386.705 110.847,381.671 104.145,375.060 105.097 M380.365 106.578 C 383.270 108.412,384.562 111.451,383.859 114.800 C 383.515 116.443,382.726 117.353,374.841 125.202 C 363.670 136.323,357.508 140.742,346.800 145.311 C 342.833 147.004,341.004 147.603,334.800 149.238 C 324.826 151.868,310.978 151.868,298.000 149.239 C 297.010 149.038,295.120 148.661,293.800 148.400 C 292.480 148.139,290.680 147.779,289.800 147.600 C 288.920 147.421,287.120 147.061,285.800 146.800 C 284.480 146.539,282.680 146.179,281.800 146.000 C 280.920 145.821,279.120 145.461,277.800 145.200 C 276.480 144.939,274.590 144.555,273.600 144.345 C 272.610 144.136,271.260 143.875,270.600 143.766 C 269.940 143.657,268.770 143.406,268.000 143.209 C 267.230 143.012,265.700 142.632,264.600 142.365 C 263.500 142.098,260.761 141.189,258.513 140.346 C 238.790 132.947,214.365 132.746,195.400 139.827 C 193.860 140.402,192.150 141.014,191.600 141.187 C 182.628 144.008,165.482 155.861,158.133 164.322 C 156.854 165.795,155.208 167.630,154.474 168.400 C 152.453 170.522,146.104 180.114,143.883 184.400 C 142.800 186.490,141.779 188.380,141.614 188.600 C 141.347 188.955,138.071 197.410,137.196 200.000 C 133.374 211.314,132.026 228.510,133.990 240.900 L 134.291 242.800 133.005 242.800 C 132.298 242.800,131.198 242.641,130.560 242.446 C 129.922 242.251,127.150 241.679,124.400 241.176 C 121.650 240.672,119.194 240.105,118.942 239.916 C 117.374 238.738,117.539 219.532,119.193 210.600 C 119.397 209.500,119.768 207.430,120.018 206.000 C 120.269 204.570,120.612 202.950,120.781 202.400 C 121.113 201.320,121.598 199.641,122.400 196.800 C 123.220 193.891,124.449 190.333,125.300 188.400 C 125.736 187.410,126.342 186.033,126.647 185.340 C 126.951 184.646,127.200 183.957,127.200 183.807 C 127.200 183.219,131.801 174.468,133.974 170.926 C 135.273 168.807,140.824 160.744,141.381 160.165 C 141.611 159.926,143.141 158.216,144.779 156.365 C 149.998 150.470,155.561 145.281,161.611 140.666 C 167.395 136.253,179.485 129.484,185.600 127.234 C 187.688 126.466,188.495 126.152,189.600 125.678 C 190.776 125.173,198.065 122.987,199.800 122.619 C 200.460 122.479,201.720 122.181,202.600 121.957 C 214.592 118.905,233.456 118.575,246.400 121.190 C 253.455 122.616,258.800 124.072,262.600 125.603 C 267.851 127.720,267.747 127.695,289.600 132.071 C 312.277 136.611,321.004 137.130,330.800 134.517 C 332.010 134.194,333.637 133.774,334.416 133.582 C 339.787 132.261,352.649 125.730,354.800 123.232 C 354.910 123.105,356.080 122.079,357.400 120.953 C 358.720 119.827,362.410 116.312,365.600 113.142 C 373.656 105.135,376.251 103.981,380.365 106.578 M130.361 291.500 C 130.229 292.527,130.533 295.095,130.848 295.600 C 131.090 295.988,131.131 295.388,130.965 293.900 C 130.824 292.635,130.842 291.600,131.006 291.600 C 131.171 291.600,132.856 292.116,134.753 292.746 C 138.308 293.928,143.248 295.330,145.461 295.787 C 146.950 296.093,147.312 296.871,147.984 301.200 C 148.241 302.850,148.614 305.190,148.815 306.400 C 150.691 317.716,150.062 328.358,146.854 339.600 C 146.634 340.370,146.337 341.450,146.194 342.000 C 145.932 343.004,145.694 343.660,144.854 345.700 C 144.604 346.305,144.244 347.205,144.053 347.700 C 140.451 357.046,134.635 365.358,124.788 375.233 C 115.378 384.671,112.364 385.977,108.054 382.489 C 102.727 378.177,103.734 374.785,113.156 365.313 C 126.457 351.942,131.074 343.525,133.966 327.376 C 134.499 324.397,134.539 312.174,134.023 309.877 C 133.816 308.955,133.144 305.500,132.531 302.200 C 131.918 298.900,131.351 296.631,131.272 297.159 C 131.194 297.686,131.313 298.856,131.538 299.759 C 131.763 300.661,132.153 302.570,132.405 304.000 C 132.658 305.430,133.039 307.500,133.252 308.600 C 133.465 309.700,133.748 312.975,133.880 315.879 C 134.216 323.220,133.621 327.955,131.227 337.000 C 131.053 337.660,130.435 339.356,129.855 340.769 C 129.275 342.182,128.800 343.562,128.800 343.836 C 128.800 344.109,128.665 344.393,128.500 344.467 C 128.335 344.540,127.587 345.770,126.837 347.200 C 124.313 352.015,119.663 358.377,116.173 361.791 C 115.718 362.236,113.264 364.614,110.720 367.076 C 102.990 374.556,102.313 379.557,108.502 383.464 C 112.945 386.269,115.735 384.983,124.865 375.918 C 131.413 369.417,133.756 366.720,136.609 362.400 C 137.263 361.410,137.921 360.507,138.071 360.394 C 138.398 360.146,140.320 356.598,142.509 352.200 C 144.006 349.192,144.404 348.306,145.254 346.100 C 145.444 345.605,145.762 344.795,145.960 344.300 C 150.315 333.401,151.465 317.767,148.954 303.600 C 148.623 301.730,148.204 299.314,148.025 298.230 C 147.664 296.057,146.850 295.200,145.147 295.200 C 144.542 295.200,143.948 295.040,143.827 294.844 C 143.706 294.649,142.976 294.379,142.204 294.244 C 141.432 294.110,140.168 293.890,139.396 293.756 C 138.624 293.621,137.894 293.351,137.773 293.156 C 137.652 292.960,137.201 292.800,136.771 292.800 C 136.341 292.800,135.677 292.642,135.295 292.449 C 133.321 291.452,130.439 290.898,130.361 291.500 " stroke="none" fill="#581c2c" fill-rule="evenodd"></path></g></svg>